<mxfile host="65bd71144e">
    <diagram id="R2lEEEUBdFMjLlhIrx00" name="Page-1">
        <mxGraphModel dx="700" dy="696" grid="1" gridSize="10" guides="1" tooltips="1" connect="1" arrows="1" fold="1" page="1" pageScale="1" pageWidth="1600" pageHeight="1200" math="0" shadow="0" extFonts="Permanent Marker^https://fonts.googleapis.com/css?family=Permanent+Marker">
            <root>
                <mxCell id="0"/>
                <mxCell id="1" parent="0"/>
                <mxCell id="DN5Ws5FPOZln9WLRhXQ_-127" value="" style="endArrow=none;html=1;rounded=0;entryX=1;entryY=0.25;entryDx=0;entryDy=0;exitX=0.028;exitY=0.718;exitDx=0;exitDy=0;exitPerimeter=0;" parent="1" source="3yiW9DCszIMpmvs_9DkM-29" target="DN5Ws5FPOZln9WLRhXQ_-69" edge="1">
                    <mxGeometry width="50" height="50" relative="1" as="geometry">
                        <mxPoint x="1130" y="720" as="sourcePoint"/>
                        <mxPoint x="951.0100000000002" y="767.21" as="targetPoint"/>
                    </mxGeometry>
                </mxCell>
                <mxCell id="DN5Ws5FPOZln9WLRhXQ_-132" value="" style="endArrow=none;html=1;rounded=0;entryX=1;entryY=0.25;entryDx=0;entryDy=0;startArrow=none;" parent="1" source="3yiW9DCszIMpmvs_9DkM-31" target="DN5Ws5FPOZln9WLRhXQ_-69" edge="1">
                    <mxGeometry width="50" height="50" relative="1" as="geometry">
                        <mxPoint x="993.25" y="880" as="sourcePoint"/>
                        <mxPoint x="973.23" y="771.6800000000001" as="targetPoint"/>
                    </mxGeometry>
                </mxCell>
                <mxCell id="DN5Ws5FPOZln9WLRhXQ_-134" value="" style="endArrow=none;html=1;rounded=0;exitX=0;exitY=1;exitDx=0;exitDy=0;" parent="1" source="3yiW9DCszIMpmvs_9DkM-60" edge="1">
                    <mxGeometry width="50" height="50" relative="1" as="geometry">
                        <mxPoint x="833.25" y="690" as="sourcePoint"/>
                        <mxPoint x="1033.25" y="760" as="targetPoint"/>
                    </mxGeometry>
                </mxCell>
                <mxCell id="DN5Ws5FPOZln9WLRhXQ_-130" value="" style="endArrow=none;html=1;rounded=0;exitX=0.45;exitY=0.969;exitDx=0;exitDy=0;entryX=1;entryY=0.75;entryDx=0;entryDy=0;exitPerimeter=0;" parent="1" source="DN5Ws5FPOZln9WLRhXQ_-21" target="DN5Ws5FPOZln9WLRhXQ_-69" edge="1">
                    <mxGeometry width="50" height="50" relative="1" as="geometry">
                        <mxPoint x="1150.33" y="691.6800000000001" as="sourcePoint"/>
                        <mxPoint x="987.75" y="770" as="targetPoint"/>
                    </mxGeometry>
                </mxCell>
                <mxCell id="DN5Ws5FPOZln9WLRhXQ_-131" value="" style="endArrow=none;html=1;rounded=0;exitX=0;exitY=0.5;exitDx=0;exitDy=0;" parent="1" source="DN5Ws5FPOZln9WLRhXQ_-30" edge="1">
                    <mxGeometry width="50" height="50" relative="1" as="geometry">
                        <mxPoint x="1083.7525253169415" y="664.3933982822018" as="sourcePoint"/>
                        <mxPoint x="1033.25" y="773" as="targetPoint"/>
                    </mxGeometry>
                </mxCell>
                <mxCell id="3yiW9DCszIMpmvs_9DkM-1" value="HOLDER" style="rounded=0;whiteSpace=wrap;html=1;" parent="1" vertex="1">
                    <mxGeometry x="528.25" y="757.5" width="90" height="30" as="geometry"/>
                </mxCell>
                <mxCell id="3yiW9DCszIMpmvs_9DkM-3" value="COUNTRY_CREDIT" style="rounded=0;whiteSpace=wrap;html=1;" parent="1" vertex="1">
                    <mxGeometry x="948.25" y="231.25" width="130" height="30" as="geometry"/>
                </mxCell>
                <mxCell id="3yiW9DCszIMpmvs_9DkM-6" value="ACCOUNT" style="rounded=0;whiteSpace=wrap;html=1;" parent="1" vertex="1">
                    <mxGeometry x="736.75" y="890" width="80" height="30" as="geometry"/>
                </mxCell>
                <mxCell id="3yiW9DCszIMpmvs_9DkM-7" value="BANK" style="rounded=0;whiteSpace=wrap;html=1;" parent="1" vertex="1">
                    <mxGeometry x="743.75" y="535.13" width="70" height="30" as="geometry"/>
                </mxCell>
                <mxCell id="3yiW9DCszIMpmvs_9DkM-12" value="H_ID" style="ellipse;whiteSpace=wrap;html=1;rounded=0;shadow=0;labelBackgroundColor=none;labelBorderColor=none;sketch=0;fontStyle=4" parent="1" vertex="1">
                    <mxGeometry x="428.25" y="655" width="70" height="40" as="geometry"/>
                </mxCell>
                <mxCell id="3yiW9DCszIMpmvs_9DkM-13" value="NAME" style="ellipse;whiteSpace=wrap;html=1;rounded=0;shadow=0;labelBackgroundColor=none;labelBorderColor=none;sketch=0;" parent="1" vertex="1">
                    <mxGeometry x="397.38" y="690" width="60" height="40" as="geometry"/>
                </mxCell>
                <mxCell id="3yiW9DCszIMpmvs_9DkM-14" value="NATIONALITY" style="ellipse;whiteSpace=wrap;html=1;rounded=0;shadow=0;labelBackgroundColor=none;labelBorderColor=none;sketch=0;" parent="1" vertex="1">
                    <mxGeometry x="357.38" y="810" width="100" height="40" as="geometry"/>
                </mxCell>
                <mxCell id="3yiW9DCszIMpmvs_9DkM-27" value="PASSWORD" style="ellipse;whiteSpace=wrap;html=1;rounded=0;shadow=0;labelBackgroundColor=none;labelBorderColor=none;sketch=0;" parent="1" vertex="1">
                    <mxGeometry x="842.75" y="941.8699999999999" width="90" height="40" as="geometry"/>
                </mxCell>
                <mxCell id="3yiW9DCszIMpmvs_9DkM-29" value="TXN_DATE" style="ellipse;whiteSpace=wrap;html=1;rounded=0;shadow=0;labelBackgroundColor=none;labelBorderColor=none;sketch=0;" parent="1" vertex="1">
                    <mxGeometry x="1136.75" y="655" width="80" height="40" as="geometry"/>
                </mxCell>
                <mxCell id="3yiW9DCszIMpmvs_9DkM-30" value="AMOUNT" style="ellipse;whiteSpace=wrap;html=1;rounded=0;shadow=0;labelBackgroundColor=none;labelBorderColor=none;sketch=0;" parent="1" vertex="1">
                    <mxGeometry x="1180" y="775" width="80" height="40" as="geometry"/>
                </mxCell>
                <mxCell id="3yiW9DCszIMpmvs_9DkM-56" value="" style="endArrow=none;html=1;rounded=0;exitX=0.5;exitY=1;exitDx=0;exitDy=0;entryX=0.423;entryY=0.044;entryDx=0;entryDy=0;entryPerimeter=0;" parent="1" source="DN5Ws5FPOZln9WLRhXQ_-254" target="DN5Ws5FPOZln9WLRhXQ_-88" edge="1">
                    <mxGeometry width="50" height="50" relative="1" as="geometry">
                        <mxPoint x="693.25" y="72.5" as="sourcePoint"/>
                        <mxPoint x="510" y="230" as="targetPoint"/>
                        <Array as="points"/>
                    </mxGeometry>
                </mxCell>
                <mxCell id="3yiW9DCszIMpmvs_9DkM-60" value="TXN_ID" style="ellipse;whiteSpace=wrap;html=1;rounded=0;shadow=0;labelBackgroundColor=none;labelBorderColor=none;sketch=0;fontStyle=4" parent="1" vertex="1">
                    <mxGeometry x="1086.75" y="625" width="70" height="40" as="geometry"/>
                </mxCell>
                <mxCell id="7zT6gZfM_LvfLLDX_BZt-2" value="" style="endArrow=none;html=1;rounded=0;exitX=0;exitY=0.5;exitDx=0;exitDy=0;entryX=1;entryY=0.5;entryDx=0;entryDy=0;" parent="1" source="3yiW9DCszIMpmvs_9DkM-1" target="7zT6gZfM_LvfLLDX_BZt-7" edge="1">
                    <mxGeometry width="50" height="50" relative="1" as="geometry">
                        <mxPoint x="488.25" y="773.75" as="sourcePoint"/>
                        <mxPoint x="428.25" y="718.75" as="targetPoint"/>
                    </mxGeometry>
                </mxCell>
                <mxCell id="7zT6gZfM_LvfLLDX_BZt-3" value="" style="endArrow=none;html=1;rounded=0;exitX=0.5;exitY=1;exitDx=0;exitDy=0;entryX=0;entryY=0.25;entryDx=0;entryDy=0;" parent="1" source="3yiW9DCszIMpmvs_9DkM-12" target="3yiW9DCszIMpmvs_9DkM-1" edge="1">
                    <mxGeometry width="50" height="50" relative="1" as="geometry">
                        <mxPoint x="538.25" y="1093.75" as="sourcePoint"/>
                        <mxPoint x="488.25" y="773.75" as="targetPoint"/>
                    </mxGeometry>
                </mxCell>
                <mxCell id="7zT6gZfM_LvfLLDX_BZt-4" value="" style="endArrow=none;html=1;rounded=0;entryX=0;entryY=0.5;entryDx=0;entryDy=0;exitX=1;exitY=0;exitDx=0;exitDy=0;" parent="1" source="3yiW9DCszIMpmvs_9DkM-14" target="3yiW9DCszIMpmvs_9DkM-1" edge="1">
                    <mxGeometry width="50" height="50" relative="1" as="geometry">
                        <mxPoint x="433.25" y="804" as="sourcePoint"/>
                        <mxPoint x="488.25" y="781.25" as="targetPoint"/>
                    </mxGeometry>
                </mxCell>
                <mxCell id="7zT6gZfM_LvfLLDX_BZt-6" value="PHONE_NUMBER" style="ellipse;whiteSpace=wrap;html=1;fontStyle=4" parent="1" vertex="1">
                    <mxGeometry x="349.13" y="850" width="120" height="40" as="geometry"/>
                </mxCell>
                <mxCell id="7zT6gZfM_LvfLLDX_BZt-7" value="ADDRESS" style="ellipse;whiteSpace=wrap;html=1;rounded=0;shadow=0;labelBackgroundColor=none;labelBorderColor=none;sketch=0;" parent="1" vertex="1">
                    <mxGeometry x="372.38" y="770" width="80" height="40" as="geometry"/>
                </mxCell>
                <mxCell id="7zT6gZfM_LvfLLDX_BZt-8" value="" style="endArrow=none;html=1;rounded=0;exitX=0;exitY=0.5;exitDx=0;exitDy=0;entryX=1;entryY=0;entryDx=0;entryDy=0;" parent="1" source="3yiW9DCszIMpmvs_9DkM-1" target="7zT6gZfM_LvfLLDX_BZt-6" edge="1">
                    <mxGeometry width="50" height="50" relative="1" as="geometry">
                        <mxPoint x="523.25" y="780" as="sourcePoint"/>
                        <mxPoint x="443.25" y="823.75" as="targetPoint"/>
                    </mxGeometry>
                </mxCell>
                <mxCell id="7zT6gZfM_LvfLLDX_BZt-10" value="" style="endArrow=none;html=1;rounded=0;exitX=1;exitY=1;exitDx=0;exitDy=0;entryX=0;entryY=0.5;entryDx=0;entryDy=0;" parent="1" source="3yiW9DCszIMpmvs_9DkM-13" target="3yiW9DCszIMpmvs_9DkM-1" edge="1">
                    <mxGeometry width="50" height="50" relative="1" as="geometry">
                        <mxPoint x="648.25" y="1123.75" as="sourcePoint"/>
                        <mxPoint x="488.25" y="773.75" as="targetPoint"/>
                    </mxGeometry>
                </mxCell>
                <mxCell id="7zT6gZfM_LvfLLDX_BZt-33" value="BALANCE" style="ellipse;whiteSpace=wrap;html=1;" parent="1" vertex="1">
                    <mxGeometry x="762.75" y="941.8699999999999" width="80" height="40" as="geometry"/>
                </mxCell>
                <mxCell id="7zT6gZfM_LvfLLDX_BZt-34" value="&lt;span style=&quot;text-decoration-line: underline;&quot;&gt;ACCOUNT_NUMBER&lt;/span&gt;" style="ellipse;whiteSpace=wrap;html=1;" parent="1" vertex="1">
                    <mxGeometry x="622.75" y="941.8699999999999" width="140" height="40" as="geometry"/>
                </mxCell>
                <mxCell id="7zT6gZfM_LvfLLDX_BZt-38" value="" style="endArrow=none;html=1;rounded=0;exitX=0.5;exitY=0;exitDx=0;exitDy=0;entryX=0.422;entryY=1.028;entryDx=0;entryDy=0;entryPerimeter=0;" parent="1" source="7zT6gZfM_LvfLLDX_BZt-33" target="3yiW9DCszIMpmvs_9DkM-6" edge="1">
                    <mxGeometry width="50" height="50" relative="1" as="geometry">
                        <mxPoint x="414.75" y="935" as="sourcePoint"/>
                        <mxPoint x="759" y="951.8699999999999" as="targetPoint"/>
                    </mxGeometry>
                </mxCell>
                <mxCell id="7zT6gZfM_LvfLLDX_BZt-39" value="" style="endArrow=none;html=1;rounded=0;exitX=0.5;exitY=0;exitDx=0;exitDy=0;entryX=0.25;entryY=1;entryDx=0;entryDy=0;" parent="1" source="7zT6gZfM_LvfLLDX_BZt-34" target="3yiW9DCszIMpmvs_9DkM-6" edge="1">
                    <mxGeometry width="50" height="50" relative="1" as="geometry">
                        <mxPoint x="399.2300000000005" y="1068.98" as="sourcePoint"/>
                        <mxPoint x="742" y="921.8699999999999" as="targetPoint"/>
                    </mxGeometry>
                </mxCell>
                <mxCell id="7zT6gZfM_LvfLLDX_BZt-76" value="RENEWS" style="rhombus;whiteSpace=wrap;html=1;rounded=0;shadow=0;labelBackgroundColor=none;labelBorderColor=none;sketch=0;" parent="1" vertex="1">
                    <mxGeometry x="836.87" y="320" width="150" height="45" as="geometry"/>
                </mxCell>
                <mxCell id="DN5Ws5FPOZln9WLRhXQ_-19" value="CNTR_ACCT_NO" style="ellipse;whiteSpace=wrap;html=1;rounded=0;shadow=0;labelBackgroundColor=none;labelBorderColor=none;sketch=0;" parent="1" vertex="1">
                    <mxGeometry x="1106.75" y="895" width="140" height="40" as="geometry"/>
                </mxCell>
                <mxCell id="DN5Ws5FPOZln9WLRhXQ_-21" value="CNTR_CTRY" style="ellipse;whiteSpace=wrap;html=1;rounded=0;shadow=0;labelBackgroundColor=none;labelBorderColor=none;sketch=0;" parent="1" vertex="1">
                    <mxGeometry x="1130" y="855" width="140" height="40" as="geometry"/>
                </mxCell>
                <mxCell id="DN5Ws5FPOZln9WLRhXQ_-30" value="CNTR_NAME" style="ellipse;whiteSpace=wrap;html=1;rounded=0;shadow=0;labelBackgroundColor=none;labelBorderColor=none;sketch=0;" parent="1" vertex="1">
                    <mxGeometry x="1150" y="815" width="140" height="40" as="geometry"/>
                </mxCell>
                <mxCell id="DN5Ws5FPOZln9WLRhXQ_-37" value="NAME" style="ellipse;whiteSpace=wrap;html=1;rounded=0;shadow=0;labelBackgroundColor=none;labelBorderColor=none;sketch=0;" parent="1" vertex="1">
                    <mxGeometry x="490" y="168" width="70" height="40" as="geometry"/>
                </mxCell>
                <mxCell id="DN5Ws5FPOZln9WLRhXQ_-51" value="" style="endArrow=none;html=1;rounded=0;exitX=0.5;exitY=1;exitDx=0;exitDy=0;entryX=0.663;entryY=0.862;entryDx=0;entryDy=0;entryPerimeter=0;" parent="1" source="3yiW9DCszIMpmvs_9DkM-7" target="DN5Ws5FPOZln9WLRhXQ_-99" edge="1">
                    <mxGeometry width="50" height="50" relative="1" as="geometry">
                        <mxPoint x="747.12" y="38.129999999999995" as="sourcePoint"/>
                        <mxPoint x="649.12" y="89.38000000000011" as="targetPoint"/>
                    </mxGeometry>
                </mxCell>
                <mxCell id="DN5Ws5FPOZln9WLRhXQ_-52" value="" style="endArrow=none;html=1;rounded=0;exitX=0.5;exitY=1;exitDx=0;exitDy=0;entryX=0.409;entryY=0.929;entryDx=0;entryDy=0;entryPerimeter=0;" parent="1" source="3yiW9DCszIMpmvs_9DkM-7" target="7zT6gZfM_LvfLLDX_BZt-76" edge="1">
                    <mxGeometry width="50" height="50" relative="1" as="geometry">
                        <mxPoint x="772.12" y="48.129999999999995" as="sourcePoint"/>
                        <mxPoint x="900" y="360" as="targetPoint"/>
                    </mxGeometry>
                </mxCell>
                <mxCell id="DN5Ws5FPOZln9WLRhXQ_-69" value="TRANSACTION" style="rounded=0;whiteSpace=wrap;html=1;" parent="1" vertex="1">
                    <mxGeometry x="923.25" y="757.5" width="110" height="30" as="geometry"/>
                </mxCell>
                <mxCell id="DN5Ws5FPOZln9WLRhXQ_-71" value="INITIATES" style="rhombus;whiteSpace=wrap;html=1;rounded=0;shadow=0;labelBackgroundColor=none;labelBorderColor=none;sketch=0;" parent="1" vertex="1">
                    <mxGeometry x="703.75" y="748.75" width="150" height="45" as="geometry"/>
                </mxCell>
                <mxCell id="DN5Ws5FPOZln9WLRhXQ_-72" value="" style="verticalLabelPosition=bottom;verticalAlign=top;html=1;shape=mxgraph.basic.frame;dx=10;" parent="1" vertex="1">
                    <mxGeometry x="417.38" y="427" width="140" height="60" as="geometry"/>
                </mxCell>
                <mxCell id="DN5Ws5FPOZln9WLRhXQ_-73" value="" style="verticalLabelPosition=bottom;verticalAlign=top;html=1;shape=mxgraph.basic.frame;dx=10;" parent="1" vertex="1">
                    <mxGeometry x="980" y="422" width="130" height="60" as="geometry"/>
                </mxCell>
                <mxCell id="DN5Ws5FPOZln9WLRhXQ_-74" value="HAS" style="rhombus;whiteSpace=wrap;html=1;rounded=0;shadow=0;labelBackgroundColor=none;labelBorderColor=none;sketch=0;" parent="1" vertex="1">
                    <mxGeometry x="498.25" y="830" width="150" height="45" as="geometry"/>
                </mxCell>
                <mxCell id="DN5Ws5FPOZln9WLRhXQ_-75" value="DNG_HOLDER" style="text;html=1;strokeColor=none;fillColor=none;align=center;verticalAlign=middle;whiteSpace=wrap;rounded=0;" parent="1" vertex="1">
                    <mxGeometry x="457.38" y="442" width="60" height="30" as="geometry"/>
                </mxCell>
                <mxCell id="DN5Ws5FPOZln9WLRhXQ_-76" value="DNG_TXN" style="text;html=1;strokeColor=none;fillColor=none;align=center;verticalAlign=middle;whiteSpace=wrap;rounded=0;" parent="1" vertex="1">
                    <mxGeometry x="1014.5" y="437" width="60" height="30" as="geometry"/>
                </mxCell>
                <mxCell id="DN5Ws5FPOZln9WLRhXQ_-77" value="DNG_ACCT" style="rounded=0;whiteSpace=wrap;html=1;" parent="1" vertex="1">
                    <mxGeometry x="707.37" y="232.25" width="110" height="30" as="geometry"/>
                </mxCell>
                <mxCell id="DN5Ws5FPOZln9WLRhXQ_-86" value="" style="endArrow=none;html=1;rounded=0;exitX=0.5;exitY=1;exitDx=0;exitDy=0;entryX=0.5;entryY=0;entryDx=0;entryDy=0;" parent="1" edge="1">
                    <mxGeometry width="50" height="50" relative="1" as="geometry">
                        <mxPoint x="755.87" y="261.0000000000001" as="sourcePoint"/>
                        <mxPoint x="755.87" y="292.2500000000001" as="targetPoint"/>
                    </mxGeometry>
                </mxCell>
                <mxCell id="DN5Ws5FPOZln9WLRhXQ_-88" value="DNG_PERS" style="rounded=0;whiteSpace=wrap;html=1;" parent="1" vertex="1">
                    <mxGeometry x="467.38" y="231.25" width="102.62" height="30" as="geometry"/>
                </mxCell>
                <mxCell id="DN5Ws5FPOZln9WLRhXQ_-99" value="UPDATES" style="rhombus;whiteSpace=wrap;html=1;rounded=0;shadow=0;labelBackgroundColor=none;labelBorderColor=none;sketch=0;" parent="1" vertex="1">
                    <mxGeometry x="528.25" y="312" width="150" height="45" as="geometry"/>
                </mxCell>
                <mxCell id="DN5Ws5FPOZln9WLRhXQ_-107" value="MANAGES" style="rhombus;whiteSpace=wrap;html=1;rounded=0;shadow=0;labelBackgroundColor=none;labelBorderColor=none;sketch=0;" parent="1" vertex="1">
                    <mxGeometry x="686.87" y="291.25" width="150" height="45" as="geometry"/>
                </mxCell>
                <mxCell id="DN5Ws5FPOZln9WLRhXQ_-114" value="SUSPECT_OF" style="shape=rhombus;double=1;perimeter=rhombusPerimeter;whiteSpace=wrap;html=1;align=center;" parent="1" vertex="1">
                    <mxGeometry x="418.25" y="560" width="140" height="60" as="geometry"/>
                </mxCell>
                <mxCell id="DN5Ws5FPOZln9WLRhXQ_-115" value="IDENTIFIED_AS" style="shape=rhombus;double=1;perimeter=rhombusPerimeter;whiteSpace=wrap;html=1;align=center;" parent="1" vertex="1">
                    <mxGeometry x="970" y="560" width="150" height="60" as="geometry"/>
                </mxCell>
                <mxCell id="DN5Ws5FPOZln9WLRhXQ_-122" value="" style="endArrow=none;html=1;rounded=0;entryX=0.5;entryY=0;entryDx=0;entryDy=0;" parent="1" edge="1">
                    <mxGeometry width="50" height="50" relative="1" as="geometry">
                        <mxPoint x="576.25" y="788.5" as="sourcePoint"/>
                        <mxPoint x="576.25" y="831" as="targetPoint"/>
                    </mxGeometry>
                </mxCell>
                <mxCell id="DN5Ws5FPOZln9WLRhXQ_-124" value="" style="endArrow=none;html=1;rounded=0;exitX=1;exitY=0.5;exitDx=0;exitDy=0;entryX=0;entryY=0.5;entryDx=0;entryDy=0;" parent="1" source="3yiW9DCszIMpmvs_9DkM-1" target="DN5Ws5FPOZln9WLRhXQ_-71" edge="1">
                    <mxGeometry width="50" height="50" relative="1" as="geometry">
                        <mxPoint x="553.25" y="680" as="sourcePoint"/>
                        <mxPoint x="605.75" y="767.5" as="targetPoint"/>
                    </mxGeometry>
                </mxCell>
                <mxCell id="DN5Ws5FPOZln9WLRhXQ_-125" value="" style="endArrow=none;html=1;rounded=0;exitX=1;exitY=0.5;exitDx=0;exitDy=0;entryX=0;entryY=0.5;entryDx=0;entryDy=0;" parent="1" edge="1">
                    <mxGeometry width="50" height="50" relative="1" as="geometry">
                        <mxPoint x="841" y="767.5" as="sourcePoint"/>
                        <mxPoint x="923.25" y="767.5" as="targetPoint"/>
                    </mxGeometry>
                </mxCell>
                <mxCell id="DN5Ws5FPOZln9WLRhXQ_-126" value="" style="endArrow=none;html=1;rounded=0;exitX=0;exitY=0.5;exitDx=0;exitDy=0;" parent="1" source="3yiW9DCszIMpmvs_9DkM-30" edge="1">
                    <mxGeometry width="50" height="50" relative="1" as="geometry">
                        <mxPoint x="1140" y="780" as="sourcePoint"/>
                        <mxPoint x="1033.25" y="770" as="targetPoint"/>
                    </mxGeometry>
                </mxCell>
                <mxCell id="DN5Ws5FPOZln9WLRhXQ_-128" value="" style="endArrow=none;html=1;rounded=0;exitX=0;exitY=0;exitDx=0;exitDy=0;entryX=1;entryY=1;entryDx=0;entryDy=0;" parent="1" source="DN5Ws5FPOZln9WLRhXQ_-19" target="DN5Ws5FPOZln9WLRhXQ_-69" edge="1">
                    <mxGeometry width="50" height="50" relative="1" as="geometry">
                        <mxPoint x="923.25" y="690" as="sourcePoint"/>
                        <mxPoint x="973.23" y="771.6800000000001" as="targetPoint"/>
                    </mxGeometry>
                </mxCell>
                <mxCell id="DN5Ws5FPOZln9WLRhXQ_-129" value="" style="endArrow=none;html=1;rounded=0;exitX=0;exitY=0.5;exitDx=0;exitDy=0;entryX=1;entryY=0.5;entryDx=0;entryDy=0;" parent="1" source="tzNfzf9yp9ZlYdevH18b-5" target="DN5Ws5FPOZln9WLRhXQ_-69" edge="1">
                    <mxGeometry width="50" height="50" relative="1" as="geometry">
                        <mxPoint x="1243.25" y="770" as="sourcePoint"/>
                        <mxPoint x="987.75" y="770" as="targetPoint"/>
                    </mxGeometry>
                </mxCell>
                <mxCell id="DN5Ws5FPOZln9WLRhXQ_-138" value="" style="endArrow=none;html=1;rounded=0;entryX=0.375;entryY=0.056;entryDx=0;entryDy=0;entryPerimeter=0;" parent="1" edge="1">
                    <mxGeometry width="50" height="50" relative="1" as="geometry">
                        <mxPoint x="1041" y="482" as="sourcePoint"/>
                        <mxPoint x="1040.75" y="560" as="targetPoint"/>
                    </mxGeometry>
                </mxCell>
                <mxCell id="DN5Ws5FPOZln9WLRhXQ_-139" value="" style="endArrow=none;html=1;rounded=0;" parent="1" edge="1">
                    <mxGeometry width="50" height="50" relative="1" as="geometry">
                        <mxPoint x="1048.75" y="482" as="sourcePoint"/>
                        <mxPoint x="1049" y="560" as="targetPoint"/>
                    </mxGeometry>
                </mxCell>
                <mxCell id="DN5Ws5FPOZln9WLRhXQ_-143" value="" style="endArrow=none;html=1;rounded=0;entryX=0.375;entryY=0.056;entryDx=0;entryDy=0;entryPerimeter=0;exitX=0.5;exitY=1;exitDx=0;exitDy=0;" parent="1" source="DN5Ws5FPOZln9WLRhXQ_-114" edge="1">
                    <mxGeometry width="50" height="50" relative="1" as="geometry">
                        <mxPoint x="572.13" y="595.8199999999999" as="sourcePoint"/>
                        <mxPoint x="571.88" y="757.5" as="targetPoint"/>
                    </mxGeometry>
                </mxCell>
                <mxCell id="DN5Ws5FPOZln9WLRhXQ_-145" value="" style="endArrow=none;html=1;rounded=0;entryX=0.375;entryY=0.056;entryDx=0;entryDy=0;entryPerimeter=0;" parent="1" edge="1">
                    <mxGeometry width="50" height="50" relative="1" as="geometry">
                        <mxPoint x="483.13" y="487" as="sourcePoint"/>
                        <mxPoint x="482.88" y="560" as="targetPoint"/>
                    </mxGeometry>
                </mxCell>
                <mxCell id="DN5Ws5FPOZln9WLRhXQ_-146" value="" style="endArrow=none;html=1;rounded=0;" parent="1" edge="1">
                    <mxGeometry width="50" height="50" relative="1" as="geometry">
                        <mxPoint x="490.88" y="487" as="sourcePoint"/>
                        <mxPoint x="491.38" y="560" as="targetPoint"/>
                    </mxGeometry>
                </mxCell>
                <mxCell id="DN5Ws5FPOZln9WLRhXQ_-151" value="" style="endArrow=none;html=1;rounded=0;exitX=0.5;exitY=1;exitDx=0;exitDy=0;" parent="1" source="DN5Ws5FPOZln9WLRhXQ_-233" edge="1">
                    <mxGeometry width="50" height="50" relative="1" as="geometry">
                        <mxPoint x="884.87" y="280.7500000000001" as="sourcePoint"/>
                        <mxPoint x="756.5" y="231" as="targetPoint"/>
                    </mxGeometry>
                </mxCell>
                <mxCell id="DN5Ws5FPOZln9WLRhXQ_-153" value="" style="endArrow=none;html=1;rounded=0;exitX=1;exitY=1;exitDx=0;exitDy=0;entryX=0;entryY=0.5;entryDx=0;entryDy=0;" parent="1" source="DN5Ws5FPOZln9WLRhXQ_-74" target="3yiW9DCszIMpmvs_9DkM-6" edge="1">
                    <mxGeometry width="50" height="50" relative="1" as="geometry">
                        <mxPoint x="569.5" y="875" as="sourcePoint"/>
                        <mxPoint x="730" y="940" as="targetPoint"/>
                    </mxGeometry>
                </mxCell>
                <mxCell id="DN5Ws5FPOZln9WLRhXQ_-154" value="" style="endArrow=none;html=1;rounded=0;entryX=0.654;entryY=1.008;entryDx=0;entryDy=0;exitX=0.424;exitY=-0.019;exitDx=0;exitDy=0;exitPerimeter=0;entryPerimeter=0;" parent="1" source="3yiW9DCszIMpmvs_9DkM-27" target="3yiW9DCszIMpmvs_9DkM-6" edge="1">
                    <mxGeometry width="50" height="50" relative="1" as="geometry">
                        <mxPoint x="492.25" y="961.8699999999999" as="sourcePoint"/>
                        <mxPoint x="547.25" y="899.3699999999999" as="targetPoint"/>
                    </mxGeometry>
                </mxCell>
                <mxCell id="DN5Ws5FPOZln9WLRhXQ_-156" value="" style="endArrow=none;html=1;rounded=0;entryX=0.375;entryY=0.056;entryDx=0;entryDy=0;entryPerimeter=0;exitX=0.5;exitY=1;exitDx=0;exitDy=0;" parent="1" source="DN5Ws5FPOZln9WLRhXQ_-115" edge="1">
                    <mxGeometry width="50" height="50" relative="1" as="geometry">
                        <mxPoint x="970" y="630" as="sourcePoint"/>
                        <mxPoint x="967.75" y="758" as="targetPoint"/>
                    </mxGeometry>
                </mxCell>
                <mxCell id="DN5Ws5FPOZln9WLRhXQ_-158" value="" style="endArrow=none;html=1;rounded=0;exitX=0.5;exitY=1;exitDx=0;exitDy=0;entryX=0.5;entryY=0;entryDx=0;entryDy=0;" parent="1" edge="1">
                    <mxGeometry width="50" height="50" relative="1" as="geometry">
                        <mxPoint x="763.87" y="261.0000000000001" as="sourcePoint"/>
                        <mxPoint x="763.87" y="292.2500000000001" as="targetPoint"/>
                    </mxGeometry>
                </mxCell>
                <mxCell id="DN5Ws5FPOZln9WLRhXQ_-159" value="" style="endArrow=none;html=1;rounded=0;entryX=0.658;entryY=0.115;entryDx=0;entryDy=0;entryPerimeter=0;" parent="1" edge="1">
                    <mxGeometry width="50" height="50" relative="1" as="geometry">
                        <mxPoint x="1010" y="261" as="sourcePoint"/>
                        <mxPoint x="937.5699999999997" y="328.1750000000002" as="targetPoint"/>
                    </mxGeometry>
                </mxCell>
                <mxCell id="DN5Ws5FPOZln9WLRhXQ_-160" value="" style="endArrow=none;html=1;rounded=0;exitX=1;exitY=0.5;exitDx=0;exitDy=0;entryX=0;entryY=0.5;entryDx=0;entryDy=0;" parent="1" edge="1">
                    <mxGeometry width="50" height="50" relative="1" as="geometry">
                        <mxPoint x="840" y="775.5" as="sourcePoint"/>
                        <mxPoint x="923" y="775.5" as="targetPoint"/>
                    </mxGeometry>
                </mxCell>
                <mxCell id="DN5Ws5FPOZln9WLRhXQ_-162" value="" style="endArrow=none;html=1;rounded=0;entryX=0.5;entryY=0;entryDx=0;entryDy=0;exitX=0.5;exitY=1;exitDx=0;exitDy=0;" parent="1" source="DN5Ws5FPOZln9WLRhXQ_-222" target="DN5Ws5FPOZln9WLRhXQ_-71" edge="1">
                    <mxGeometry width="50" height="50" relative="1" as="geometry">
                        <mxPoint x="780" y="560" as="sourcePoint"/>
                        <mxPoint x="781.75" y="748.7500000000001" as="targetPoint"/>
                    </mxGeometry>
                </mxCell>
                <mxCell id="DN5Ws5FPOZln9WLRhXQ_-165" value="" style="endArrow=none;html=1;rounded=0;entryX=0;entryY=0.25;entryDx=0;entryDy=0;exitX=0.826;exitY=0.658;exitDx=0;exitDy=0;exitPerimeter=0;" parent="1" source="DN5Ws5FPOZln9WLRhXQ_-74" target="3yiW9DCszIMpmvs_9DkM-6" edge="1">
                    <mxGeometry width="50" height="50" relative="1" as="geometry">
                        <mxPoint x="630" y="860" as="sourcePoint"/>
                        <mxPoint x="740" y="940" as="targetPoint"/>
                    </mxGeometry>
                </mxCell>
                <mxCell id="DN5Ws5FPOZln9WLRhXQ_-166" value="" style="endArrow=none;html=1;rounded=0;entryX=0.5;entryY=0;entryDx=0;entryDy=0;" parent="1" edge="1">
                    <mxGeometry width="50" height="50" relative="1" as="geometry">
                        <mxPoint x="569.25" y="788.5" as="sourcePoint"/>
                        <mxPoint x="569.25" y="831" as="targetPoint"/>
                    </mxGeometry>
                </mxCell>
                <mxCell id="DN5Ws5FPOZln9WLRhXQ_-173" value="" style="endArrow=none;html=1;rounded=0;entryX=0.5;entryY=0;entryDx=0;entryDy=0;entryPerimeter=0;exitX=0.5;exitY=1;exitDx=0;exitDy=0;" parent="1" source="DN5Ws5FPOZln9WLRhXQ_-174" target="DN5Ws5FPOZln9WLRhXQ_-72" edge="1">
                    <mxGeometry width="50" height="50" relative="1" as="geometry">
                        <mxPoint x="540" y="410" as="sourcePoint"/>
                        <mxPoint x="522.1600000000002" y="436.0999999999999" as="targetPoint"/>
                    </mxGeometry>
                </mxCell>
                <mxCell id="DN5Ws5FPOZln9WLRhXQ_-174" value="SCORE" style="ellipse;whiteSpace=wrap;html=1;rounded=0;shadow=0;labelBackgroundColor=none;labelBorderColor=none;sketch=0;" parent="1" vertex="1">
                    <mxGeometry x="452.38" y="365" width="70" height="40" as="geometry"/>
                </mxCell>
                <mxCell id="DN5Ws5FPOZln9WLRhXQ_-176" value="" style="endArrow=none;html=1;rounded=0;exitX=0.5;exitY=1;exitDx=0;exitDy=0;entryX=0.562;entryY=0.018;entryDx=0;entryDy=0;entryPerimeter=0;" parent="1" source="DN5Ws5FPOZln9WLRhXQ_-179" target="DN5Ws5FPOZln9WLRhXQ_-73" edge="1">
                    <mxGeometry width="50" height="50" relative="1" as="geometry">
                        <mxPoint x="1073.25" y="382" as="sourcePoint"/>
                        <mxPoint x="1136.75" y="412" as="targetPoint"/>
                    </mxGeometry>
                </mxCell>
                <mxCell id="DN5Ws5FPOZln9WLRhXQ_-177" value="" style="endArrow=none;html=1;rounded=0;exitX=0.616;exitY=0.968;exitDx=0;exitDy=0;entryX=0;entryY=0;entryDx=32.5;entryDy=0;entryPerimeter=0;exitPerimeter=0;" parent="1" source="DN5Ws5FPOZln9WLRhXQ_-178" target="DN5Ws5FPOZln9WLRhXQ_-73" edge="1">
                    <mxGeometry width="50" height="50" relative="1" as="geometry">
                        <mxPoint x="1011.02" y="383.28999999999996" as="sourcePoint"/>
                        <mxPoint x="1033.31" y="422" as="targetPoint"/>
                    </mxGeometry>
                </mxCell>
                <mxCell id="DN5Ws5FPOZln9WLRhXQ_-178" value="SCORE" style="ellipse;whiteSpace=wrap;html=1;rounded=0;shadow=0;labelBackgroundColor=none;labelBorderColor=none;sketch=0;" parent="1" vertex="1">
                    <mxGeometry x="950" y="357" width="70" height="40" as="geometry"/>
                </mxCell>
                <mxCell id="DN5Ws5FPOZln9WLRhXQ_-179" value="REASON" style="ellipse;whiteSpace=wrap;html=1;rounded=0;shadow=0;labelBackgroundColor=none;labelBorderColor=none;sketch=0;" parent="1" vertex="1">
                    <mxGeometry x="1020" y="357" width="70" height="40" as="geometry"/>
                </mxCell>
                <mxCell id="DN5Ws5FPOZln9WLRhXQ_-180" value="1" style="text;html=1;strokeColor=none;fillColor=none;align=center;verticalAlign=middle;whiteSpace=wrap;rounded=0;" parent="1" vertex="1">
                    <mxGeometry x="469.13" y="487" width="60" height="30" as="geometry"/>
                </mxCell>
                <mxCell id="DN5Ws5FPOZln9WLRhXQ_-181" value="1" style="text;html=1;strokeColor=none;fillColor=none;align=center;verticalAlign=middle;whiteSpace=wrap;rounded=0;" parent="1" vertex="1">
                    <mxGeometry x="555" y="726.25" width="60" height="30" as="geometry"/>
                </mxCell>
                <mxCell id="DN5Ws5FPOZln9WLRhXQ_-182" value="1" style="text;html=1;strokeColor=none;fillColor=none;align=center;verticalAlign=middle;whiteSpace=wrap;rounded=0;" parent="1" vertex="1">
                    <mxGeometry x="1030" y="482" width="60" height="30" as="geometry"/>
                </mxCell>
                <mxCell id="DN5Ws5FPOZln9WLRhXQ_-183" value="1" style="text;html=1;strokeColor=none;fillColor=none;align=center;verticalAlign=middle;whiteSpace=wrap;rounded=0;" parent="1" vertex="1">
                    <mxGeometry x="960" y="730" width="60" height="30" as="geometry"/>
                </mxCell>
                <mxCell id="DN5Ws5FPOZln9WLRhXQ_-184" value="1" style="text;html=1;strokeColor=none;fillColor=none;align=center;verticalAlign=middle;whiteSpace=wrap;rounded=0;" parent="1" vertex="1">
                    <mxGeometry x="598.75" y="740" width="60" height="30" as="geometry"/>
                </mxCell>
                <mxCell id="DN5Ws5FPOZln9WLRhXQ_-185" value="1" style="text;html=1;strokeColor=none;fillColor=none;align=center;verticalAlign=middle;whiteSpace=wrap;rounded=0;" parent="1" vertex="1">
                    <mxGeometry x="762.75" y="560" width="60" height="30" as="geometry"/>
                </mxCell>
                <mxCell id="DN5Ws5FPOZln9WLRhXQ_-186" value="N" style="text;html=1;strokeColor=none;fillColor=none;align=center;verticalAlign=middle;whiteSpace=wrap;rounded=0;" parent="1" vertex="1">
                    <mxGeometry x="888.25" y="735" width="60" height="30" as="geometry"/>
                </mxCell>
                <mxCell id="DN5Ws5FPOZln9WLRhXQ_-188" value="N" style="text;html=1;strokeColor=none;fillColor=none;align=center;verticalAlign=middle;whiteSpace=wrap;rounded=0;" parent="1" vertex="1">
                    <mxGeometry x="702.75" y="867.5" width="60" height="30" as="geometry"/>
                </mxCell>
                <mxCell id="DN5Ws5FPOZln9WLRhXQ_-193" value="N" style="text;html=1;strokeColor=none;fillColor=none;align=center;verticalAlign=middle;whiteSpace=wrap;rounded=0;" parent="1" vertex="1">
                    <mxGeometry x="744.87" y="262.25" width="60" height="30" as="geometry"/>
                </mxCell>
                <mxCell id="3yiW9DCszIMpmvs_9DkM-31" value="METHOD" style="ellipse;whiteSpace=wrap;html=1;rounded=0;shadow=0;labelBackgroundColor=none;labelBorderColor=none;sketch=0;" parent="1" vertex="1">
                    <mxGeometry x="1166.75" y="695" width="80" height="40" as="geometry"/>
                </mxCell>
                <mxCell id="DN5Ws5FPOZln9WLRhXQ_-204" value="Account Holder" style="text;html=1;strokeColor=none;fillColor=none;align=center;verticalAlign=middle;whiteSpace=wrap;rounded=0;" parent="1" vertex="1">
                    <mxGeometry x="634.12" y="775" width="60" height="30" as="geometry"/>
                </mxCell>
                <mxCell id="DN5Ws5FPOZln9WLRhXQ_-206" value="Transaction" style="text;html=1;strokeColor=none;fillColor=none;align=center;verticalAlign=middle;whiteSpace=wrap;rounded=0;" parent="1" vertex="1">
                    <mxGeometry x="856.37" y="770" width="60" height="30" as="geometry"/>
                </mxCell>
                <mxCell id="DN5Ws5FPOZln9WLRhXQ_-208" value="Account Holder" style="text;html=1;strokeColor=none;fillColor=none;align=center;verticalAlign=middle;whiteSpace=wrap;rounded=0;" parent="1" vertex="1">
                    <mxGeometry x="529.13" y="655" width="60" height="30" as="geometry"/>
                </mxCell>
                <mxCell id="DN5Ws5FPOZln9WLRhXQ_-209" value="Dangerous&lt;br&gt;Account&lt;br&gt;Holder" style="text;html=1;strokeColor=none;fillColor=none;align=center;verticalAlign=middle;whiteSpace=wrap;rounded=0;" parent="1" vertex="1">
                    <mxGeometry x="502.38" y="517" width="60" height="30" as="geometry"/>
                </mxCell>
                <mxCell id="DN5Ws5FPOZln9WLRhXQ_-210" value="Dangerous&lt;br&gt;Transaction" style="text;html=1;strokeColor=none;fillColor=none;align=center;verticalAlign=middle;whiteSpace=wrap;rounded=0;" parent="1" vertex="1">
                    <mxGeometry x="970" y="512" width="60" height="30" as="geometry"/>
                </mxCell>
                <mxCell id="DN5Ws5FPOZln9WLRhXQ_-211" value="Transaction" style="text;html=1;strokeColor=none;fillColor=none;align=center;verticalAlign=middle;whiteSpace=wrap;rounded=0;" parent="1" vertex="1">
                    <mxGeometry x="940" y="665" width="60" height="30" as="geometry"/>
                </mxCell>
                <mxCell id="DN5Ws5FPOZln9WLRhXQ_-212" value="Account Holder" style="text;html=1;strokeColor=none;fillColor=none;align=center;verticalAlign=middle;whiteSpace=wrap;rounded=0;" parent="1" vertex="1">
                    <mxGeometry x="514.12" y="793.75" width="60" height="30" as="geometry"/>
                </mxCell>
                <mxCell id="DN5Ws5FPOZln9WLRhXQ_-213" value="Account" style="text;html=1;strokeColor=none;fillColor=none;align=center;verticalAlign=middle;whiteSpace=wrap;rounded=0;" parent="1" vertex="1">
                    <mxGeometry x="622.75" y="880" width="60" height="30" as="geometry"/>
                </mxCell>
                <mxCell id="DN5Ws5FPOZln9WLRhXQ_-214" value="Bank" style="text;html=1;strokeColor=none;fillColor=none;align=center;verticalAlign=middle;whiteSpace=wrap;rounded=0;" parent="1" vertex="1">
                    <mxGeometry x="770.75" y="629.62" width="60" height="30" as="geometry"/>
                </mxCell>
                <mxCell id="DN5Ws5FPOZln9WLRhXQ_-219" value="Dangerous&lt;br&gt;Account" style="text;html=1;strokeColor=none;fillColor=none;align=center;verticalAlign=middle;whiteSpace=wrap;rounded=0;" parent="1" vertex="1">
                    <mxGeometry x="694.12" y="262.25" width="54" height="30" as="geometry"/>
                </mxCell>
                <mxCell id="DN5Ws5FPOZln9WLRhXQ_-222" value="BANK" style="rounded=0;whiteSpace=wrap;html=1;" parent="1" vertex="1">
                    <mxGeometry x="743.75" y="535.13" width="70" height="30" as="geometry"/>
                </mxCell>
                <mxCell id="DN5Ws5FPOZln9WLRhXQ_-223" value="&lt;u&gt;NAME&lt;/u&gt;" style="ellipse;whiteSpace=wrap;html=1;rounded=0;shadow=0;labelBackgroundColor=none;labelBorderColor=none;sketch=0;" parent="1" vertex="1">
                    <mxGeometry x="902.37" y="170.0000000000001" width="60" height="40" as="geometry"/>
                </mxCell>
                <mxCell id="DN5Ws5FPOZln9WLRhXQ_-224" value="CREDIT" style="ellipse;whiteSpace=wrap;html=1;rounded=0;shadow=0;labelBackgroundColor=none;labelBorderColor=none;sketch=0;" parent="1" vertex="1">
                    <mxGeometry x="1082.37" y="168.0000000000001" width="70" height="40" as="geometry"/>
                </mxCell>
                <mxCell id="DN5Ws5FPOZln9WLRhXQ_-225" value="BANK_ID" style="ellipse;whiteSpace=wrap;html=1;rounded=0;shadow=0;labelBackgroundColor=none;labelBorderColor=none;sketch=0;fontStyle=4" parent="1" vertex="1">
                    <mxGeometry x="840" y="487" width="83.5" height="40" as="geometry"/>
                </mxCell>
                <mxCell id="DN5Ws5FPOZln9WLRhXQ_-226" value="&lt;u&gt;BRANCH_NAME&lt;/u&gt;" style="ellipse;whiteSpace=wrap;html=1;rounded=0;shadow=0;labelBackgroundColor=none;labelBorderColor=none;sketch=0;" parent="1" vertex="1">
                    <mxGeometry x="840" y="527" width="120" height="40" as="geometry"/>
                </mxCell>
                <mxCell id="DN5Ws5FPOZln9WLRhXQ_-227" value="" style="endArrow=none;html=1;rounded=0;exitX=0;exitY=0.5;exitDx=0;exitDy=0;entryX=1;entryY=0.5;entryDx=0;entryDy=0;" parent="1" source="DN5Ws5FPOZln9WLRhXQ_-226" target="DN5Ws5FPOZln9WLRhXQ_-222" edge="1">
                    <mxGeometry width="50" height="50" relative="1" as="geometry">
                        <mxPoint x="724" y="638.13" as="sourcePoint"/>
                        <mxPoint x="769" y="530.13" as="targetPoint"/>
                    </mxGeometry>
                </mxCell>
                <mxCell id="DN5Ws5FPOZln9WLRhXQ_-228" value="" style="endArrow=none;html=1;rounded=0;entryX=1;entryY=1;entryDx=0;entryDy=0;exitX=0.203;exitY=-0.038;exitDx=0;exitDy=0;exitPerimeter=0;" parent="1" source="3yiW9DCszIMpmvs_9DkM-3" target="DN5Ws5FPOZln9WLRhXQ_-223" edge="1">
                    <mxGeometry width="50" height="50" relative="1" as="geometry">
                        <mxPoint x="1000" y="220" as="sourcePoint"/>
                        <mxPoint x="1050" y="80" as="targetPoint"/>
                    </mxGeometry>
                </mxCell>
                <mxCell id="DN5Ws5FPOZln9WLRhXQ_-230" value="" style="endArrow=none;html=1;rounded=0;exitX=0;exitY=1;exitDx=0;exitDy=0;entryX=1;entryY=0;entryDx=0;entryDy=0;" parent="1" source="DN5Ws5FPOZln9WLRhXQ_-225" target="DN5Ws5FPOZln9WLRhXQ_-222" edge="1">
                    <mxGeometry width="50" height="50" relative="1" as="geometry">
                        <mxPoint x="779" y="540.13" as="sourcePoint"/>
                        <mxPoint x="789" y="555.13" as="targetPoint"/>
                    </mxGeometry>
                </mxCell>
                <mxCell id="DN5Ws5FPOZln9WLRhXQ_-233" value="&lt;u&gt;ACCT_NO&lt;/u&gt;" style="ellipse;whiteSpace=wrap;html=1;rounded=0;shadow=0;labelBackgroundColor=none;labelBorderColor=none;sketch=0;" parent="1" vertex="1">
                    <mxGeometry x="700.75" y="171.0000000000001" width="70" height="40" as="geometry"/>
                </mxCell>
                <mxCell id="DN5Ws5FPOZln9WLRhXQ_-234" value="" style="endArrow=none;html=1;rounded=0;entryX=0.5;entryY=1;entryDx=0;entryDy=0;exitX=0.5;exitY=0;exitDx=0;exitDy=0;" parent="1" source="DN5Ws5FPOZln9WLRhXQ_-222" target="DN5Ws5FPOZln9WLRhXQ_-107" edge="1">
                    <mxGeometry width="50" height="50" relative="1" as="geometry">
                        <mxPoint x="779" y="530" as="sourcePoint"/>
                        <mxPoint x="800" y="330" as="targetPoint"/>
                    </mxGeometry>
                </mxCell>
                <mxCell id="DN5Ws5FPOZln9WLRhXQ_-235" value="" style="endArrow=none;html=1;rounded=0;exitX=0.5;exitY=1;exitDx=0;exitDy=0;entryX=0.5;entryY=0;entryDx=0;entryDy=0;" parent="1" edge="1">
                    <mxGeometry width="50" height="50" relative="1" as="geometry">
                        <mxPoint x="755.87" y="261.0000000000001" as="sourcePoint"/>
                        <mxPoint x="755.87" y="292.2500000000001" as="targetPoint"/>
                    </mxGeometry>
                </mxCell>
                <mxCell id="DN5Ws5FPOZln9WLRhXQ_-236" value="" style="endArrow=none;html=1;rounded=0;entryX=0.56;entryY=-0.038;entryDx=0;entryDy=0;entryPerimeter=0;exitX=0.5;exitY=1;exitDx=0;exitDy=0;" parent="1" source="tzNfzf9yp9ZlYdevH18b-9" target="3yiW9DCszIMpmvs_9DkM-3" edge="1">
                    <mxGeometry width="50" height="50" relative="1" as="geometry">
                        <mxPoint x="1046" y="210" as="sourcePoint"/>
                        <mxPoint x="1068" y="72.5" as="targetPoint"/>
                    </mxGeometry>
                </mxCell>
                <mxCell id="DN5Ws5FPOZln9WLRhXQ_-240" value="" style="endArrow=none;html=1;rounded=0;exitX=0.5;exitY=1;exitDx=0;exitDy=0;entryX=0.5;entryY=0;entryDx=0;entryDy=0;" parent="1" edge="1">
                    <mxGeometry width="50" height="50" relative="1" as="geometry">
                        <mxPoint x="763.87" y="261.0000000000001" as="sourcePoint"/>
                        <mxPoint x="763.87" y="292.2500000000001" as="targetPoint"/>
                    </mxGeometry>
                </mxCell>
                <mxCell id="DN5Ws5FPOZln9WLRhXQ_-241" value="" style="endArrow=none;html=1;rounded=0;entryX=1;entryY=0;entryDx=0;entryDy=0;exitX=0.571;exitY=1.019;exitDx=0;exitDy=0;exitPerimeter=0;" parent="1" source="3yiW9DCszIMpmvs_9DkM-3" target="7zT6gZfM_LvfLLDX_BZt-76" edge="1">
                    <mxGeometry width="50" height="50" relative="1" as="geometry">
                        <mxPoint x="1016" y="269" as="sourcePoint"/>
                        <mxPoint x="956.8699999999999" y="330.25" as="targetPoint"/>
                    </mxGeometry>
                </mxCell>
                <mxCell id="DN5Ws5FPOZln9WLRhXQ_-254" value="DNG_ID" style="ellipse;whiteSpace=wrap;html=1;rounded=0;shadow=0;labelBackgroundColor=none;labelBorderColor=none;sketch=0;fontStyle=4" parent="1" vertex="1">
                    <mxGeometry x="420" y="170" width="70" height="38" as="geometry"/>
                </mxCell>
                <mxCell id="DN5Ws5FPOZln9WLRhXQ_-419" value="Account" style="text;html=1;strokeColor=none;fillColor=none;align=center;verticalAlign=middle;whiteSpace=wrap;rounded=0;" parent="1" vertex="1">
                    <mxGeometry x="872.75" y="880" width="60" height="30" as="geometry"/>
                </mxCell>
                <mxCell id="DN5Ws5FPOZln9WLRhXQ_-500" value="WITH" style="rhombus;whiteSpace=wrap;html=1;rounded=0;shadow=0;labelBackgroundColor=none;labelBorderColor=none;sketch=0;" parent="1" vertex="1">
                    <mxGeometry x="902.37" y="830" width="150" height="45" as="geometry"/>
                </mxCell>
                <mxCell id="DN5Ws5FPOZln9WLRhXQ_-501" value="" style="endArrow=none;html=1;rounded=0;entryX=0.5;entryY=0;entryDx=0;entryDy=0;" parent="1" edge="1">
                    <mxGeometry width="50" height="50" relative="1" as="geometry">
                        <mxPoint x="973.4499999999999" y="787.5" as="sourcePoint"/>
                        <mxPoint x="973.4499999999999" y="830" as="targetPoint"/>
                    </mxGeometry>
                </mxCell>
                <mxCell id="DN5Ws5FPOZln9WLRhXQ_-502" value="" style="endArrow=none;html=1;rounded=0;entryX=0.5;entryY=0;entryDx=0;entryDy=0;" parent="1" edge="1">
                    <mxGeometry width="50" height="50" relative="1" as="geometry">
                        <mxPoint x="980.4499999999999" y="787.5" as="sourcePoint"/>
                        <mxPoint x="980.4499999999999" y="830" as="targetPoint"/>
                    </mxGeometry>
                </mxCell>
                <mxCell id="DN5Ws5FPOZln9WLRhXQ_-503" value="" style="endArrow=none;html=1;rounded=0;entryX=1;entryY=0.5;entryDx=0;entryDy=0;exitX=0;exitY=1;exitDx=0;exitDy=0;" parent="1" source="DN5Ws5FPOZln9WLRhXQ_-500" target="3yiW9DCszIMpmvs_9DkM-6" edge="1">
                    <mxGeometry width="50" height="50" relative="1" as="geometry">
                        <mxPoint x="640" y="870" as="sourcePoint"/>
                        <mxPoint x="747.75" y="938.1300000000001" as="targetPoint"/>
                    </mxGeometry>
                </mxCell>
                <mxCell id="DN5Ws5FPOZln9WLRhXQ_-506" value="Transaction" style="text;html=1;strokeColor=none;fillColor=none;align=center;verticalAlign=middle;whiteSpace=wrap;rounded=0;" parent="1" vertex="1">
                    <mxGeometry x="990" y="797.5" width="60" height="30" as="geometry"/>
                </mxCell>
                <mxCell id="DN5Ws5FPOZln9WLRhXQ_-507" value="1" style="text;html=1;strokeColor=none;fillColor=none;align=center;verticalAlign=middle;whiteSpace=wrap;rounded=0;" parent="1" vertex="1">
                    <mxGeometry x="554.13" y="787.5" width="60" height="30" as="geometry"/>
                </mxCell>
                <mxCell id="DN5Ws5FPOZln9WLRhXQ_-508" value="N" style="text;html=1;strokeColor=none;fillColor=none;align=center;verticalAlign=middle;whiteSpace=wrap;rounded=0;" parent="1" vertex="1">
                    <mxGeometry x="936.3699999999999" y="780" width="60" height="30" as="geometry"/>
                </mxCell>
                <mxCell id="DN5Ws5FPOZln9WLRhXQ_-509" value="1" style="text;html=1;strokeColor=none;fillColor=none;align=center;verticalAlign=middle;whiteSpace=wrap;rounded=0;" parent="1" vertex="1">
                    <mxGeometry x="792.75" y="867.5" width="60" height="30" as="geometry"/>
                </mxCell>
                <mxCell id="DN5Ws5FPOZln9WLRhXQ_-514" value="" style="endArrow=none;html=1;rounded=0;entryX=0.441;entryY=1.04;entryDx=0;entryDy=0;entryPerimeter=0;exitX=0;exitY=0;exitDx=0;exitDy=0;" parent="1" source="DN5Ws5FPOZln9WLRhXQ_-99" target="DN5Ws5FPOZln9WLRhXQ_-88" edge="1">
                    <mxGeometry width="50" height="50" relative="1" as="geometry">
                        <mxPoint x="580" y="300" as="sourcePoint"/>
                        <mxPoint x="537.7399999999998" y="260.60000000000014" as="targetPoint"/>
                    </mxGeometry>
                </mxCell>
                <mxCell id="DN5Ws5FPOZln9WLRhXQ_-515" value="" style="endArrow=none;html=1;rounded=0;entryX=0.894;entryY=0.011;entryDx=0;entryDy=0;exitX=0.316;exitY=0.183;exitDx=0;exitDy=0;exitPerimeter=0;entryPerimeter=0;" parent="1" source="DN5Ws5FPOZln9WLRhXQ_-99" target="DN5Ws5FPOZln9WLRhXQ_-526" edge="1">
                    <mxGeometry width="50" height="50" relative="1" as="geometry">
                        <mxPoint x="600" y="310" as="sourcePoint"/>
                        <mxPoint x="580" y="270" as="targetPoint"/>
                    </mxGeometry>
                </mxCell>
                <mxCell id="DN5Ws5FPOZln9WLRhXQ_-518" value="" style="endArrow=none;html=1;rounded=0;exitX=0.421;exitY=0.978;exitDx=0;exitDy=0;exitPerimeter=0;" parent="1" source="DN5Ws5FPOZln9WLRhXQ_-37" edge="1">
                    <mxGeometry width="50" height="50" relative="1" as="geometry">
                        <mxPoint x="517.3800000000001" y="220" as="sourcePoint"/>
                        <mxPoint x="520" y="230" as="targetPoint"/>
                        <Array as="points"/>
                    </mxGeometry>
                </mxCell>
                <mxCell id="DN5Ws5FPOZln9WLRhXQ_-521" value="Bank" style="text;html=1;strokeColor=none;fillColor=none;align=center;verticalAlign=middle;whiteSpace=wrap;rounded=0;" parent="1" vertex="1">
                    <mxGeometry x="647.37" y="442" width="60" height="30" as="geometry"/>
                </mxCell>
                <mxCell id="DN5Ws5FPOZln9WLRhXQ_-522" value="Bank" style="text;html=1;strokeColor=none;fillColor=none;align=center;verticalAlign=middle;whiteSpace=wrap;rounded=0;" parent="1" vertex="1">
                    <mxGeometry x="721.13" y="412" width="60" height="30" as="geometry"/>
                </mxCell>
                <mxCell id="DN5Ws5FPOZln9WLRhXQ_-523" value="Bank" style="text;html=1;strokeColor=none;fillColor=none;align=center;verticalAlign=middle;whiteSpace=wrap;rounded=0;" parent="1" vertex="1">
                    <mxGeometry x="796.37" y="427" width="60" height="30" as="geometry"/>
                </mxCell>
                <mxCell id="DN5Ws5FPOZln9WLRhXQ_-524" value="Dangerous&lt;br&gt;Person" style="text;html=1;strokeColor=none;fillColor=none;align=center;verticalAlign=middle;whiteSpace=wrap;rounded=0;" parent="1" vertex="1">
                    <mxGeometry x="555" y="270" width="54" height="30" as="geometry"/>
                </mxCell>
                <mxCell id="DN5Ws5FPOZln9WLRhXQ_-525" value="Country's&lt;br&gt;Credit" style="text;html=1;strokeColor=none;fillColor=none;align=center;verticalAlign=middle;whiteSpace=wrap;rounded=0;" parent="1" vertex="1">
                    <mxGeometry x="916" y="270" width="54" height="30" as="geometry"/>
                </mxCell>
                <mxCell id="DN5Ws5FPOZln9WLRhXQ_-526" value="N" style="text;html=1;strokeColor=none;fillColor=none;align=center;verticalAlign=middle;whiteSpace=wrap;rounded=0;" parent="1" vertex="1">
                    <mxGeometry x="470.75" y="261.25" width="60" height="30" as="geometry"/>
                </mxCell>
                <mxCell id="DN5Ws5FPOZln9WLRhXQ_-527" value="N" style="text;html=1;strokeColor=none;fillColor=none;align=center;verticalAlign=middle;whiteSpace=wrap;rounded=0;" parent="1" vertex="1">
                    <mxGeometry x="1000" y="261.25" width="60" height="30" as="geometry"/>
                </mxCell>
                <mxCell id="DN5Ws5FPOZln9WLRhXQ_-528" value="1" style="text;html=1;strokeColor=none;fillColor=none;align=center;verticalAlign=middle;whiteSpace=wrap;rounded=0;" parent="1" vertex="1">
                    <mxGeometry x="710.75" y="512" width="60" height="30" as="geometry"/>
                </mxCell>
                <mxCell id="DN5Ws5FPOZln9WLRhXQ_-529" value="1" style="text;html=1;strokeColor=none;fillColor=none;align=center;verticalAlign=middle;whiteSpace=wrap;rounded=0;" parent="1" vertex="1">
                    <mxGeometry x="743.75" y="512" width="60" height="30" as="geometry"/>
                </mxCell>
                <mxCell id="DN5Ws5FPOZln9WLRhXQ_-530" value="1" style="text;html=1;strokeColor=none;fillColor=none;align=center;verticalAlign=middle;whiteSpace=wrap;rounded=0;" parent="1" vertex="1">
                    <mxGeometry x="781.13" y="512" width="58.87" height="30" as="geometry"/>
                </mxCell>
                <mxCell id="DN5Ws5FPOZln9WLRhXQ_-531" value="REASON" style="ellipse;whiteSpace=wrap;html=1;rounded=0;shadow=0;labelBackgroundColor=none;labelBorderColor=none;sketch=0;" parent="1" vertex="1">
                    <mxGeometry x="770.75" y="171" width="70" height="40" as="geometry"/>
                </mxCell>
                <mxCell id="DN5Ws5FPOZln9WLRhXQ_-532" value="" style="endArrow=none;html=1;rounded=0;exitX=0;exitY=1;exitDx=0;exitDy=0;entryX=0.5;entryY=0;entryDx=0;entryDy=0;" parent="1" source="DN5Ws5FPOZln9WLRhXQ_-531" target="DN5Ws5FPOZln9WLRhXQ_-77" edge="1">
                    <mxGeometry width="50" height="50" relative="1" as="geometry">
                        <mxPoint x="745.75" y="221" as="sourcePoint"/>
                        <mxPoint x="766.5" y="241" as="targetPoint"/>
                    </mxGeometry>
                </mxCell>
                <mxCell id="DN5Ws5FPOZln9WLRhXQ_-533" value="REASON" style="ellipse;whiteSpace=wrap;html=1;rounded=0;shadow=0;labelBackgroundColor=none;labelBorderColor=none;sketch=0;" parent="1" vertex="1">
                    <mxGeometry x="560" y="168" width="70" height="40" as="geometry"/>
                </mxCell>
                <mxCell id="DN5Ws5FPOZln9WLRhXQ_-534" value="" style="endArrow=none;html=1;rounded=0;exitX=0;exitY=1;exitDx=0;exitDy=0;entryX=0.574;entryY=0.003;entryDx=0;entryDy=0;entryPerimeter=0;" parent="1" source="DN5Ws5FPOZln9WLRhXQ_-533" target="DN5Ws5FPOZln9WLRhXQ_-88" edge="1">
                    <mxGeometry width="50" height="50" relative="1" as="geometry">
                        <mxPoint x="529.4700000000003" y="217.1199999999999" as="sourcePoint"/>
                        <mxPoint x="530" y="240" as="targetPoint"/>
                        <Array as="points"/>
                    </mxGeometry>
                </mxCell>
                <mxCell id="tzNfzf9yp9ZlYdevH18b-1" value="STREET_ADDRESS" style="ellipse;whiteSpace=wrap;html=1;rounded=0;shadow=0;labelBackgroundColor=none;labelBorderColor=none;sketch=0;" parent="1" vertex="1">
                    <mxGeometry x="810" y="567" width="130" height="40" as="geometry"/>
                </mxCell>
                <mxCell id="tzNfzf9yp9ZlYdevH18b-2" value="CITY" style="ellipse;whiteSpace=wrap;html=1;rounded=0;shadow=0;labelBackgroundColor=none;labelBorderColor=none;sketch=0;" parent="1" vertex="1">
                    <mxGeometry x="641.13" y="487" width="80" height="40" as="geometry"/>
                </mxCell>
                <mxCell id="tzNfzf9yp9ZlYdevH18b-3" value="STATE" style="ellipse;whiteSpace=wrap;html=1;rounded=0;shadow=0;labelBackgroundColor=none;labelBorderColor=none;sketch=0;" parent="1" vertex="1">
                    <mxGeometry x="641.13" y="527" width="80" height="40" as="geometry"/>
                </mxCell>
                <mxCell id="tzNfzf9yp9ZlYdevH18b-4" value="ZIP_CODE" style="ellipse;whiteSpace=wrap;html=1;rounded=0;shadow=0;labelBackgroundColor=none;labelBorderColor=none;sketch=0;" parent="1" vertex="1">
                    <mxGeometry x="641.13" y="567" width="80" height="40" as="geometry"/>
                </mxCell>
                <mxCell id="tzNfzf9yp9ZlYdevH18b-5" value="TRANSDER_DIRECTION" style="ellipse;whiteSpace=wrap;html=1;rounded=0;shadow=0;labelBackgroundColor=none;labelBorderColor=none;sketch=0;" parent="1" vertex="1">
                    <mxGeometry x="1155" y="735" width="150" height="40" as="geometry"/>
                </mxCell>
                <mxCell id="tzNfzf9yp9ZlYdevH18b-6" value="STATUS" style="ellipse;whiteSpace=wrap;html=1;rounded=0;shadow=0;labelBackgroundColor=none;labelBorderColor=none;sketch=0;" parent="1" vertex="1">
                    <mxGeometry x="1090" y="357" width="70" height="40" as="geometry"/>
                </mxCell>
                <mxCell id="tzNfzf9yp9ZlYdevH18b-8" value="SEX" style="ellipse;whiteSpace=wrap;html=1;rounded=0;shadow=0;labelBackgroundColor=none;labelBorderColor=none;sketch=0;" parent="1" vertex="1">
                    <mxGeometry x="379.13" y="730" width="60" height="40" as="geometry"/>
                </mxCell>
                <mxCell id="tzNfzf9yp9ZlYdevH18b-9" value="COUNTRY_CODE" style="ellipse;whiteSpace=wrap;html=1;rounded=0;shadow=0;labelBackgroundColor=none;labelBorderColor=none;sketch=0;" parent="1" vertex="1">
                    <mxGeometry x="962.37" y="168.0000000000001" width="120" height="40" as="geometry"/>
                </mxCell>
                <mxCell id="tzNfzf9yp9ZlYdevH18b-10" value="" style="endArrow=none;html=1;rounded=0;exitX=1;exitY=1;exitDx=0;exitDy=0;" parent="1" source="DN5Ws5FPOZln9WLRhXQ_-222" target="tzNfzf9yp9ZlYdevH18b-1" edge="1">
                    <mxGeometry width="50" height="50" relative="1" as="geometry">
                        <mxPoint x="788.75" y="545.1300000000001" as="sourcePoint"/>
                        <mxPoint x="771.8699999999997" y="346.25" as="targetPoint"/>
                    </mxGeometry>
                </mxCell>
                <mxCell id="tzNfzf9yp9ZlYdevH18b-11" value="" style="endArrow=none;html=1;rounded=0;exitX=1;exitY=0.5;exitDx=0;exitDy=0;entryX=0;entryY=1;entryDx=0;entryDy=0;" parent="1" source="tzNfzf9yp9ZlYdevH18b-4" target="DN5Ws5FPOZln9WLRhXQ_-222" edge="1">
                    <mxGeometry width="50" height="50" relative="1" as="geometry">
                        <mxPoint x="823.75" y="575.1300000000001" as="sourcePoint"/>
                        <mxPoint x="842.445505037284" y="581.8819557369297" as="targetPoint"/>
                    </mxGeometry>
                </mxCell>
                <mxCell id="tzNfzf9yp9ZlYdevH18b-12" value="" style="endArrow=none;html=1;rounded=0;exitX=0;exitY=0.5;exitDx=0;exitDy=0;entryX=1;entryY=0.5;entryDx=0;entryDy=0;" parent="1" source="DN5Ws5FPOZln9WLRhXQ_-222" target="tzNfzf9yp9ZlYdevH18b-3" edge="1">
                    <mxGeometry width="50" height="50" relative="1" as="geometry">
                        <mxPoint x="850" y="557" as="sourcePoint"/>
                        <mxPoint x="823.75" y="560.1300000000001" as="targetPoint"/>
                    </mxGeometry>
                </mxCell>
                <mxCell id="tzNfzf9yp9ZlYdevH18b-13" value="" style="endArrow=none;html=1;rounded=0;exitX=0;exitY=0.25;exitDx=0;exitDy=0;entryX=0;entryY=0.25;entryDx=0;entryDy=0;" parent="1" source="DN5Ws5FPOZln9WLRhXQ_-222" target="DN5Ws5FPOZln9WLRhXQ_-528" edge="1">
                    <mxGeometry width="50" height="50" relative="1" as="geometry">
                        <mxPoint x="753.75" y="560.1300000000001" as="sourcePoint"/>
                        <mxPoint x="731" y="660" as="targetPoint"/>
                    </mxGeometry>
                </mxCell>
                <mxCell id="tzNfzf9yp9ZlYdevH18b-15" value="" style="endArrow=none;html=1;rounded=0;entryX=0;entryY=0;entryDx=97.5;entryDy=0;entryPerimeter=0;" parent="1" source="tzNfzf9yp9ZlYdevH18b-6" target="DN5Ws5FPOZln9WLRhXQ_-73" edge="1">
                    <mxGeometry width="50" height="50" relative="1" as="geometry">
                        <mxPoint x="1075" y="407" as="sourcePoint"/>
                        <mxPoint x="1077.4900000000002" y="432.8399999999999" as="targetPoint"/>
                    </mxGeometry>
                </mxCell>
                <mxCell id="tzNfzf9yp9ZlYdevH18b-17" value="" style="endArrow=none;html=1;rounded=0;entryX=0.75;entryY=0;entryDx=0;entryDy=0;" parent="1" source="DN5Ws5FPOZln9WLRhXQ_-224" target="3yiW9DCszIMpmvs_9DkM-3" edge="1">
                    <mxGeometry width="50" height="50" relative="1" as="geometry">
                        <mxPoint x="1032.37" y="218.0000000000001" as="sourcePoint"/>
                        <mxPoint x="1130" y="230" as="targetPoint"/>
                    </mxGeometry>
                </mxCell>
                <mxCell id="tzNfzf9yp9ZlYdevH18b-18" value="" style="endArrow=none;html=1;rounded=0;entryX=1;entryY=0.5;entryDx=0;entryDy=0;exitX=0;exitY=0.5;exitDx=0;exitDy=0;" parent="1" source="3yiW9DCszIMpmvs_9DkM-1" target="tzNfzf9yp9ZlYdevH18b-8" edge="1">
                    <mxGeometry width="50" height="50" relative="1" as="geometry">
                        <mxPoint x="470" y="770" as="sourcePoint"/>
                        <mxPoint x="462.3799999999951" y="800" as="targetPoint"/>
                    </mxGeometry>
                </mxCell>
            </root>
        </mxGraphModel>
    </diagram>
</mxfile>